<svg width="344" height="149" viewBox="0 0 344 149" fill="none" xmlns="http://www.w3.org/2000/svg">
<path d="M29.5 123H30V122.5H29.5V123ZM29.5 147H29V148.207L29.8536 147.354L29.5 147ZM53.5 123V122.5H53.2929L53.1464 122.646L53.5 123ZM1.5 18C1.5 8.8873 8.8873 1.5 18 1.5V0.5C8.33502 0.5 0.5 8.33502 0.5 18H1.5ZM1.5 106V18H0.5V106H1.5ZM18 122.5C8.8873 122.5 1.5 115.113 1.5 106H0.5C0.5 115.665 8.33501 123.5 18 123.5V122.5ZM29.5 122.5H18V123.5H29.5V122.5ZM30 147V123H29V147H30ZM53.1464 122.646L29.1464 146.646L29.8536 147.354L53.8536 123.354L53.1464 122.646ZM326 122.5H53.5V123.5H326V122.5ZM342.5 106C342.5 115.113 335.113 122.5 326 122.5V123.5C335.665 123.5 343.5 115.665 343.5 106H342.5ZM342.5 18V106H343.5V18H342.5ZM326 1.5C335.113 1.5 342.5 8.8873 342.5 18H343.5C343.5 8.33502 335.665 0.5 326 0.5V1.5ZM18 1.5H326V0.5H18V1.5Z" fill="#7447FA"/>
</svg>
