<svg width="39" height="34" viewBox="0 0 39 34" fill="none" xmlns="http://www.w3.org/2000/svg">
<path d="M33.6818 14.2782C33.2117 14.2782 32.7608 14.4663 32.4283 14.801C32.0959 15.1357 31.9091 15.5896 31.9091 16.063V28.5564C31.9091 29.0298 31.7223 29.4837 31.3899 29.8185C31.0574 30.1532 30.6065 30.3412 30.1364 30.3412H5.31818C4.84803 30.3412 4.39713 30.1532 4.06467 29.8185C3.73222 29.4837 3.54545 29.0298 3.54545 28.5564V14.2782C3.54545 13.8049 3.73222 13.3509 4.06467 13.0162C4.39713 12.6815 4.84803 12.4934 5.31818 12.4934H8.86364C9.25021 12.5138 9.63276 12.4061 9.95286 12.187C10.273 11.9678 10.513 11.6492 10.6364 11.2798L11.5936 8.35276C11.7126 7.99826 11.9391 7.69036 12.2413 7.47258C12.5435 7.2548 12.9061 7.13814 13.2777 7.13911H23.0455C23.5156 7.13911 23.9665 6.95107 24.299 6.61636C24.6314 6.28165 24.8182 5.82768 24.8182 5.35433C24.8182 4.88098 24.6314 4.42701 24.299 4.0923C23.9665 3.75759 23.5156 3.56955 23.0455 3.56955H13.1891C12.075 3.57165 10.9897 3.92594 10.0864 4.58242C9.18308 5.2389 8.50733 6.16442 8.15455 7.22835L7.58727 9.01312H5.31818C3.90771 9.01312 2.55501 9.57724 1.55766 10.5814C0.560307 11.5855 0 12.9474 0 14.3675V28.6457C0 30.0657 0.560307 31.4276 1.55766 32.4318C2.55501 33.4359 3.90771 34 5.31818 34H30.1364C31.5468 34 32.8995 33.4359 33.8969 32.4318C34.8942 31.4276 35.4545 30.0657 35.4545 28.6457V16.1522C35.4666 15.9105 35.4296 15.6687 35.3459 15.4418C35.2622 15.2148 35.1336 15.0074 34.9677 14.8321C34.8019 14.6568 34.6024 14.5173 34.3813 14.4221C34.1603 14.3269 33.9223 14.2779 33.6818 14.2782V14.2782ZM17.7273 12.4934C16.3248 12.4934 14.9539 12.9121 13.7878 13.6966C12.6217 14.4811 11.7128 15.596 11.1761 16.9005C10.6394 18.205 10.499 19.6405 10.7726 21.0253C11.0462 22.4102 11.7216 23.6822 12.7132 24.6807C13.7049 25.6791 14.9684 26.359 16.3439 26.6345C17.7194 26.9099 19.1452 26.7686 20.4408 26.2282C21.7365 25.6879 22.844 24.7728 23.6231 23.5988C24.4023 22.4248 24.8182 21.0445 24.8182 19.6325C24.8182 17.7391 24.0711 15.9233 22.7413 14.5844C21.4115 13.2456 19.6079 12.4934 17.7273 12.4934V12.4934ZM17.7273 23.2021C17.026 23.2021 16.3406 22.9927 15.7575 22.6005C15.1745 22.2083 14.72 21.6508 14.4517 20.9986C14.1834 20.3463 14.1131 19.6286 14.2499 18.9362C14.3867 18.2437 14.7244 17.6077 15.2203 17.1085C15.7161 16.6093 16.3478 16.2693 17.0356 16.1316C17.7233 15.9938 18.4362 16.0645 19.0841 16.3347C19.7319 16.6049 20.2856 17.0624 20.6752 17.6494C21.0648 18.2364 21.2727 18.9266 21.2727 19.6325C21.2727 20.5793 20.8992 21.4872 20.2343 22.1566C19.5694 22.826 18.6676 23.2021 17.7273 23.2021ZM37.2273 3.56955H35.4545V1.78478C35.4545 1.31142 35.2678 0.85746 34.9353 0.522749C34.6029 0.188038 34.152 0 33.6818 0C33.2117 0 32.7608 0.188038 32.4283 0.522749C32.0959 0.85746 31.9091 1.31142 31.9091 1.78478V3.56955H30.1364C29.6662 3.56955 29.2153 3.75759 28.8829 4.0923C28.5504 4.42701 28.3636 4.88098 28.3636 5.35433C28.3636 5.82768 28.5504 6.28165 28.8829 6.61636C29.2153 6.95107 29.6662 7.13911 30.1364 7.13911H31.9091V8.92388C31.9091 9.39724 32.0959 9.8512 32.4283 10.1859C32.7608 10.5206 33.2117 10.7087 33.6818 10.7087C34.152 10.7087 34.6029 10.5206 34.9353 10.1859C35.2678 9.8512 35.4545 9.39724 35.4545 8.92388V7.13911H37.2273C37.6974 7.13911 38.1483 6.95107 38.4808 6.61636C38.8132 6.28165 39 5.82768 39 5.35433C39 4.88098 38.8132 4.42701 38.4808 4.0923C38.1483 3.75759 37.6974 3.56955 37.2273 3.56955Z" fill="white"/>
</svg>
