<?xml version="1.0" encoding="utf-8"?>
<!-- Generator: Adobe Illustrator 24.1.0, SVG Export Plug-In . SVG Version: 6.00 Build 0)  -->
<svg version="1.1" id="Layer_1" xmlns="http://www.w3.org/2000/svg" xmlns:xlink="http://www.w3.org/1999/xlink" x="0px" y="0px"
	 viewBox="0 0 83.4 84.2" style="enable-background:new 0 0 83.4 84.2;" xml:space="preserve">
<style type="text/css">
	.st0{fill:#FFFFFF;}
</style>
<path class="st0" d="M55.9,39.4c-0.5,0-0.9,0.2-1.3,0.5c-0.3,0.3-0.5,0.8-0.5,1.3v12.5c0,0.5-0.2,0.9-0.5,1.3
	c-0.3,0.3-0.8,0.5-1.3,0.5H27.5c-0.5,0-0.9-0.2-1.3-0.5c-0.3-0.3-0.5-0.8-0.5-1.3V39.4c0-0.5,0.2-0.9,0.5-1.3
	c0.3-0.3,0.8-0.5,1.3-0.5h3.5c0.4,0,0.8-0.1,1.1-0.3c0.3-0.2,0.6-0.5,0.7-0.9l1-2.9c0.1-0.4,0.3-0.7,0.6-0.9c0.3-0.2,0.7-0.3,1-0.3
	h9.8c0.5,0,0.9-0.2,1.3-0.5c0.3-0.3,0.5-0.8,0.5-1.3s-0.2-0.9-0.5-1.3c-0.3-0.3-0.8-0.5-1.3-0.5h-9.9c-1.1,0-2.2,0.4-3.1,1
	c-0.9,0.7-1.6,1.6-1.9,2.6l-0.6,1.8h-2.3c-1.4,0-2.8,0.6-3.8,1.6c-1,1-1.6,2.4-1.6,3.8v14.3c0,1.4,0.6,2.8,1.6,3.8
	c1,1,2.4,1.6,3.8,1.6h24.8c1.4,0,2.8-0.6,3.8-1.6c1-1,1.6-2.4,1.6-3.8V41.2c0-0.2,0-0.5-0.1-0.7c-0.1-0.2-0.2-0.4-0.4-0.6
	c-0.2-0.2-0.4-0.3-0.6-0.4C56.4,39.4,56.1,39.4,55.9,39.4L55.9,39.4z M39.9,37.6c-1.4,0-2.8,0.4-3.9,1.2c-1.2,0.8-2.1,1.9-2.6,3.2
	s-0.7,2.7-0.4,4.1c0.3,1.4,0.9,2.7,1.9,3.7c1,1,2.3,1.7,3.6,2c1.4,0.3,2.8,0.1,4.1-0.4c1.3-0.5,2.4-1.5,3.2-2.6
	c0.8-1.2,1.2-2.6,1.2-4c0-1.9-0.7-3.7-2.1-5C43.6,38.3,41.8,37.6,39.9,37.6L39.9,37.6z M39.9,48.3c-0.7,0-1.4-0.2-2-0.6
	c-0.6-0.4-1-0.9-1.3-1.6c-0.3-0.7-0.3-1.4-0.2-2.1c0.1-0.7,0.5-1.3,1-1.8c0.5-0.5,1.1-0.8,1.8-1c0.7-0.1,1.4-0.1,2,0.2
	c0.6,0.3,1.2,0.7,1.6,1.3c0.4,0.6,0.6,1.3,0.6,2c0,0.9-0.4,1.9-1,2.5C41.8,47.9,40.9,48.3,39.9,48.3z M59.4,28.7h-1.8v-1.8
	c0-0.5-0.2-0.9-0.5-1.3c-0.3-0.3-0.8-0.5-1.3-0.5c-0.5,0-0.9,0.2-1.3,0.5c-0.3,0.3-0.5,0.8-0.5,1.3v1.8h-1.8c-0.5,0-0.9,0.2-1.3,0.5
	c-0.3,0.3-0.5,0.8-0.5,1.3s0.2,0.9,0.5,1.3c0.3,0.3,0.8,0.5,1.3,0.5h1.8V34c0,0.5,0.2,0.9,0.5,1.3c0.3,0.3,0.8,0.5,1.3,0.5
	c0.5,0,0.9-0.2,1.3-0.5c0.3-0.3,0.5-0.8,0.5-1.3v-1.8h1.8c0.5,0,0.9-0.2,1.3-0.5c0.3-0.3,0.5-0.8,0.5-1.3s-0.2-0.9-0.5-1.3
	C60.4,28.8,59.9,28.7,59.4,28.7z"/>
</svg>
