<svg width="12" height="18" viewBox="0 0 12 18" fill="none" xmlns="http://www.w3.org/2000/svg">
<path d="M5.98897 10.8C7.12598 10.8 8.21642 10.3259 9.02041 9.48198C9.8244 8.63807 10.2761 7.49348 10.2761 6.30001C10.2761 5.10653 9.8244 3.96194 9.02041 3.11803C8.21642 2.27411 7.12598 1.80001 5.98897 1.80001C4.85196 1.80001 3.76151 2.27411 2.95753 3.11803C2.15354 3.96194 1.70186 5.10653 1.70186 6.30001C1.70186 7.49348 2.15354 8.63807 2.95753 9.48198C3.76151 10.3259 4.85196 10.8 5.98897 10.8V10.8ZM6.84639 14.4H7.70381C7.93121 14.4 8.1493 14.4948 8.3101 14.6636C8.47089 14.8324 8.56123 15.0613 8.56123 15.3C8.56123 15.5387 8.47089 15.7676 8.3101 15.9364C8.1493 16.1052 7.93121 16.2 7.70381 16.2H6.84639V17.1C6.84639 17.3387 6.75605 17.5676 6.59526 17.7364C6.43446 17.9052 6.21637 18 5.98897 18C5.76156 18 5.54348 17.9052 5.38268 17.7364C5.22188 17.5676 5.13155 17.3387 5.13155 17.1V16.2H4.27413C4.04672 16.2 3.82863 16.1052 3.66784 15.9364C3.50704 15.7676 3.4167 15.5387 3.4167 15.3C3.4167 15.0613 3.50704 14.8324 3.66784 14.6636C3.82863 14.4948 4.04672 14.4 4.27413 14.4H5.13155V12.6C5.13155 12.5784 5.13155 12.5577 5.13326 12.537C3.63381 12.3064 2.27292 11.4891 1.32367 10.2491C0.374428 9.00905 -0.0929374 7.43811 0.0153589 5.85145C0.123655 4.2648 0.799601 2.77983 1.90756 1.69454C3.01552 0.609235 4.47351 0.0039033 5.98897 7.21085e-06C7.5081 -0.00240393 8.97159 0.59994 10.0843 1.68556C11.197 2.77118 11.8761 4.2593 11.9846 5.84979C12.0932 7.44029 11.6231 9.01483 10.6692 10.2559C9.71536 11.4969 8.34862 12.3121 6.84467 12.537L6.84639 12.6V14.4Z" fill="#FF7D99"/>
</svg>
