<svg width="15" height="15" viewBox="0 0 15 15" fill="none" xmlns="http://www.w3.org/2000/svg">
<path d="M3.01744 11.9835C3.421 12.3926 3.90099 12.7177 4.42986 12.9399C4.95874 13.1622 5.52607 13.2772 6.0993 13.2785C6.67253 13.2797 7.24036 13.1672 7.77019 12.9473C8.30003 12.7274 8.78143 12.4044 9.18677 11.997C9.5921 11.5896 9.91338 11.1058 10.1322 10.5732C10.351 10.0407 10.4629 9.46994 10.4617 8.89378C10.4604 8.31762 10.346 7.74738 10.1249 7.2158C9.90375 6.68423 9.58036 6.20178 9.17326 5.79616C8.35572 4.98161 7.25044 4.52571 6.0993 4.52825C4.94815 4.53078 3.84488 4.99153 3.03089 5.80968C2.21691 6.62783 1.7585 7.73674 1.75598 8.89378C1.75346 10.0508 2.20703 11.1617 3.01744 11.9835V11.9835ZM9.74522 3.98399L11.9678 1.75005H10.6471C10.4162 1.75005 10.1948 1.65786 10.0315 1.49376C9.86829 1.32966 9.77656 1.1071 9.77656 0.875028C9.77656 0.642957 9.86829 0.420391 10.0315 0.256292C10.1948 0.0921937 10.4162 3.96174e-06 10.6471 3.96174e-06H14.1294C14.2438 -0.000342621 14.3572 0.022054 14.463 0.0659053C14.5688 0.109757 14.6649 0.174197 14.7458 0.25552C14.8267 0.336842 14.8908 0.433442 14.9344 0.539761C14.9781 0.64608 15.0003 0.760021 15 0.875028V4.37512C15 4.60719 14.9083 4.82976 14.745 4.99386C14.5817 5.15796 14.3603 5.25015 14.1294 5.25015C13.8985 5.25015 13.6771 5.15796 13.5138 4.99386C13.3506 4.82976 13.2589 4.60719 13.2589 4.37512V2.92696L10.9762 5.22127C11.8926 6.46208 12.3086 8.00509 12.1409 9.54116C11.9733 11.0772 11.2344 12.4929 10.0722 13.5045C8.91004 14.5162 7.41047 15.0491 5.87394 14.9964C4.33741 14.9438 2.87741 14.3096 1.78645 13.2207C0.696352 12.1259 0.0594388 10.6565 0.00395452 9.10855C-0.0515298 7.5606 0.478536 6.04899 1.48742 4.8781C2.49631 3.70721 3.90909 2.96399 5.44131 2.79809C6.97352 2.63219 8.51138 3.05593 9.74522 3.98399V3.98399Z" fill="#41DDFF"/>
</svg>
