<svg width="46" height="46" viewBox="0 0 46 46" fill="none" xmlns="http://www.w3.org/2000/svg">
<path d="M23 0C10.5317 0 0 10.5317 0 23C0 35.4683 10.5317 46 23 46C35.4683 46 46 35.4683 46 23C46 10.5317 35.4683 0 23 0ZM23 11.5C26.9721 11.5 29.9 14.4256 29.9 18.4C29.9 22.3744 26.9721 25.3 23 25.3C19.0302 25.3 16.1 22.3744 16.1 18.4C16.1 14.4256 19.0302 11.5 23 11.5ZM11.2562 33.9756C13.3193 30.9396 16.7601 28.9156 20.7 28.9156H25.3C29.2422 28.9156 32.6807 30.9396 34.7438 33.9756C31.8044 37.122 27.6345 39.1 23 39.1C18.3655 39.1 14.1956 37.122 11.2562 33.9756Z" fill="white"/>
</svg>
